<mxfile host="app.diagrams.net" modified="2024-02-15T08:30:43.670Z" agent="Mozilla/5.0 (Windows NT 10.0; Win64; x64) AppleWebKit/537.36 (KHTML, like Gecko) Chrome/120.0.0.0 YaBrowser/24.1.0.0 Safari/537.36" etag="LYtIhrwYzp3gxk5SgKt8" version="22.1.21" type="github">
  <diagram name="Page-1" id="e7e014a7-5840-1c2e-5031-d8a46d1fe8dd">
    <mxGraphModel dx="956" dy="529" grid="1" gridSize="10" guides="1" tooltips="1" connect="1" arrows="1" fold="1" page="1" pageScale="1" pageWidth="1169" pageHeight="826" background="none" math="0" shadow="0">
      <root>
        <mxCell id="0" />
        <mxCell id="1" parent="0" />
        <mxCell id="au0XGn49WtIi-f6O5BRh-41" value="&lt;br&gt;Администратор" style="shape=umlActor;verticalLabelPosition=bottom;verticalAlign=top;html=1;" vertex="1" parent="1">
          <mxGeometry x="140" y="550" width="30" height="60" as="geometry" />
        </mxCell>
        <mxCell id="au0XGn49WtIi-f6O5BRh-42" value="&lt;p style=&quot;margin:0px;margin-top:4px;text-align:center;&quot;&gt;&lt;b&gt;Автооризация&lt;/b&gt;&lt;/p&gt;&lt;hr size=&quot;1&quot;&gt;&lt;div style=&quot;height:2px;&quot;&gt;&lt;/div&gt;" style="verticalAlign=top;align=left;overflow=fill;fontSize=12;fontFamily=Helvetica;html=1;whiteSpace=wrap;" vertex="1" parent="1">
          <mxGeometry x="210" y="180" width="700" height="430" as="geometry" />
        </mxCell>
        <mxCell id="au0XGn49WtIi-f6O5BRh-43" value="Студент" style="shape=umlActor;verticalLabelPosition=bottom;verticalAlign=top;html=1;" vertex="1" parent="1">
          <mxGeometry x="140" y="220" width="30" height="60" as="geometry" />
        </mxCell>
        <mxCell id="au0XGn49WtIi-f6O5BRh-47" value="Преподователь" style="shape=umlActor;verticalLabelPosition=bottom;verticalAlign=top;html=1;" vertex="1" parent="1">
          <mxGeometry x="140" y="383" width="30" height="60" as="geometry" />
        </mxCell>
        <mxCell id="au0XGn49WtIi-f6O5BRh-55" value="Анализ зарегестрированных пользователей" style="html=1;whiteSpace=wrap;" vertex="1" parent="1">
          <mxGeometry x="240" y="500" width="150" height="70" as="geometry" />
        </mxCell>
        <mxCell id="au0XGn49WtIi-f6O5BRh-56" value="Вход на сайт" style="html=1;whiteSpace=wrap;" vertex="1" parent="1">
          <mxGeometry x="250" y="320" width="130" height="38" as="geometry" />
        </mxCell>
        <mxCell id="au0XGn49WtIi-f6O5BRh-57" value="" style="endArrow=classic;html=1;rounded=0;exitX=0.501;exitY=0.425;exitDx=0;exitDy=0;exitPerimeter=0;entryX=0;entryY=0.5;entryDx=0;entryDy=0;" edge="1" parent="1" source="au0XGn49WtIi-f6O5BRh-43" target="au0XGn49WtIi-f6O5BRh-56">
          <mxGeometry width="50" height="50" relative="1" as="geometry">
            <mxPoint x="440" y="450" as="sourcePoint" />
            <mxPoint x="490" y="400" as="targetPoint" />
          </mxGeometry>
        </mxCell>
        <mxCell id="au0XGn49WtIi-f6O5BRh-58" value="" style="endArrow=classic;html=1;rounded=0;exitX=0.5;exitY=0.5;exitDx=0;exitDy=0;exitPerimeter=0;entryX=0;entryY=0.5;entryDx=0;entryDy=0;" edge="1" parent="1" source="au0XGn49WtIi-f6O5BRh-47" target="au0XGn49WtIi-f6O5BRh-56">
          <mxGeometry width="50" height="50" relative="1" as="geometry">
            <mxPoint x="440" y="450" as="sourcePoint" />
            <mxPoint x="490" y="400" as="targetPoint" />
          </mxGeometry>
        </mxCell>
        <mxCell id="au0XGn49WtIi-f6O5BRh-60" value="" style="endArrow=classic;html=1;rounded=0;exitX=0.5;exitY=0.5;exitDx=0;exitDy=0;exitPerimeter=0;entryX=0;entryY=0.5;entryDx=0;entryDy=0;" edge="1" parent="1" source="au0XGn49WtIi-f6O5BRh-41" target="au0XGn49WtIi-f6O5BRh-55">
          <mxGeometry width="50" height="50" relative="1" as="geometry">
            <mxPoint x="440" y="450" as="sourcePoint" />
            <mxPoint x="490" y="400" as="targetPoint" />
          </mxGeometry>
        </mxCell>
        <mxCell id="au0XGn49WtIi-f6O5BRh-62" value="Переход на сайт" style="html=1;whiteSpace=wrap;" vertex="1" parent="1">
          <mxGeometry x="520" y="231" width="130" height="38" as="geometry" />
        </mxCell>
        <mxCell id="au0XGn49WtIi-f6O5BRh-63" value="Авторизация" style="html=1;whiteSpace=wrap;" vertex="1" parent="1">
          <mxGeometry x="390" y="410" width="130" height="38" as="geometry" />
        </mxCell>
        <mxCell id="au0XGn49WtIi-f6O5BRh-64" value="Вспомнить пароль" style="html=1;whiteSpace=wrap;" vertex="1" parent="1">
          <mxGeometry x="640" y="410" width="130" height="38" as="geometry" />
        </mxCell>
        <mxCell id="au0XGn49WtIi-f6O5BRh-65" value="Регистрация" style="html=1;whiteSpace=wrap;" vertex="1" parent="1">
          <mxGeometry x="520" y="490" width="130" height="38" as="geometry" />
        </mxCell>
        <mxCell id="au0XGn49WtIi-f6O5BRh-74" value="Подтверждение по почте и ввод нового пороля" style="html=1;whiteSpace=wrap;" vertex="1" parent="1">
          <mxGeometry x="760" y="270" width="130" height="50" as="geometry" />
        </mxCell>
        <mxCell id="au0XGn49WtIi-f6O5BRh-79" value="Рассширить&amp;nbsp;" style="endArrow=block;endSize=16;endFill=0;html=1;rounded=0;exitX=1;exitY=0.5;exitDx=0;exitDy=0;entryX=0;entryY=0.5;entryDx=0;entryDy=0;" edge="1" parent="1" source="au0XGn49WtIi-f6O5BRh-56" target="au0XGn49WtIi-f6O5BRh-63">
          <mxGeometry width="160" relative="1" as="geometry">
            <mxPoint x="500" y="350" as="sourcePoint" />
            <mxPoint x="660" y="350" as="targetPoint" />
          </mxGeometry>
        </mxCell>
        <mxCell id="au0XGn49WtIi-f6O5BRh-83" value="Рассширить&amp;nbsp;" style="endArrow=block;endSize=16;endFill=0;html=1;rounded=0;exitX=1;exitY=0.5;exitDx=0;exitDy=0;entryX=0;entryY=0.5;entryDx=0;entryDy=0;" edge="1" parent="1" source="au0XGn49WtIi-f6O5BRh-63" target="au0XGn49WtIi-f6O5BRh-64">
          <mxGeometry width="160" relative="1" as="geometry">
            <mxPoint x="390" y="349" as="sourcePoint" />
            <mxPoint x="400" y="439" as="targetPoint" />
          </mxGeometry>
        </mxCell>
        <mxCell id="au0XGn49WtIi-f6O5BRh-84" value="Включить" style="endArrow=open;endSize=12;dashed=1;html=1;rounded=0;exitX=1;exitY=0.5;exitDx=0;exitDy=0;entryX=0.5;entryY=1;entryDx=0;entryDy=0;" edge="1" parent="1" source="au0XGn49WtIi-f6O5BRh-64" target="au0XGn49WtIi-f6O5BRh-74">
          <mxGeometry width="160" relative="1" as="geometry">
            <mxPoint x="325" y="510" as="sourcePoint" />
            <mxPoint x="325" y="370" as="targetPoint" />
          </mxGeometry>
        </mxCell>
        <mxCell id="au0XGn49WtIi-f6O5BRh-86" value="Рассширить&amp;nbsp;" style="endArrow=block;endSize=16;endFill=0;html=1;rounded=0;exitX=0;exitY=0.5;exitDx=0;exitDy=0;entryX=1;entryY=0.5;entryDx=0;entryDy=0;" edge="1" parent="1" source="au0XGn49WtIi-f6O5BRh-74" target="au0XGn49WtIi-f6O5BRh-62">
          <mxGeometry width="160" relative="1" as="geometry">
            <mxPoint x="530" y="439" as="sourcePoint" />
            <mxPoint x="650" y="439" as="targetPoint" />
          </mxGeometry>
        </mxCell>
        <mxCell id="au0XGn49WtIi-f6O5BRh-87" value="Рассширить&amp;nbsp;" style="endArrow=block;endSize=16;endFill=0;html=1;rounded=0;exitX=0.5;exitY=0;exitDx=0;exitDy=0;entryX=0;entryY=0.5;entryDx=0;entryDy=0;" edge="1" parent="1" source="au0XGn49WtIi-f6O5BRh-63" target="au0XGn49WtIi-f6O5BRh-62">
          <mxGeometry width="160" relative="1" as="geometry">
            <mxPoint x="500" y="490" as="sourcePoint" />
            <mxPoint x="660" y="490" as="targetPoint" />
          </mxGeometry>
        </mxCell>
        <mxCell id="au0XGn49WtIi-f6O5BRh-88" value="Рассширить&amp;nbsp;" style="endArrow=block;endSize=16;endFill=0;html=1;rounded=0;exitX=0.5;exitY=1;exitDx=0;exitDy=0;entryX=0;entryY=0.5;entryDx=0;entryDy=0;" edge="1" parent="1" source="au0XGn49WtIi-f6O5BRh-63" target="au0XGn49WtIi-f6O5BRh-65">
          <mxGeometry width="160" relative="1" as="geometry">
            <mxPoint x="465" y="420" as="sourcePoint" />
            <mxPoint x="530" y="349" as="targetPoint" />
          </mxGeometry>
        </mxCell>
        <mxCell id="au0XGn49WtIi-f6O5BRh-89" value="Рассширить" style="endArrow=block;endSize=16;endFill=0;html=1;rounded=0;entryX=0.5;entryY=1;entryDx=0;entryDy=0;exitX=0.5;exitY=0;exitDx=0;exitDy=0;" edge="1" parent="1" source="au0XGn49WtIi-f6O5BRh-65" target="au0XGn49WtIi-f6O5BRh-62">
          <mxGeometry width="160" relative="1" as="geometry">
            <mxPoint x="500" y="490" as="sourcePoint" />
            <mxPoint x="660" y="490" as="targetPoint" />
          </mxGeometry>
        </mxCell>
        <mxCell id="au0XGn49WtIi-f6O5BRh-91" value="Рассширить&amp;nbsp;" style="endArrow=block;endSize=16;endFill=0;html=1;rounded=0;exitX=0.5;exitY=0;exitDx=0;exitDy=0;entryX=0.5;entryY=1;entryDx=0;entryDy=0;" edge="1" parent="1" source="au0XGn49WtIi-f6O5BRh-55" target="au0XGn49WtIi-f6O5BRh-56">
          <mxGeometry width="160" relative="1" as="geometry">
            <mxPoint x="500" y="490" as="sourcePoint" />
            <mxPoint x="660" y="490" as="targetPoint" />
          </mxGeometry>
        </mxCell>
        <mxCell id="au0XGn49WtIi-f6O5BRh-92" value="" style="endArrow=classic;html=1;rounded=0;exitX=0.5;exitY=0.5;exitDx=0;exitDy=0;exitPerimeter=0;entryX=0;entryY=0.5;entryDx=0;entryDy=0;" edge="1" parent="1" source="au0XGn49WtIi-f6O5BRh-41" target="au0XGn49WtIi-f6O5BRh-56">
          <mxGeometry width="50" height="50" relative="1" as="geometry">
            <mxPoint x="165" y="590" as="sourcePoint" />
            <mxPoint x="250" y="545" as="targetPoint" />
          </mxGeometry>
        </mxCell>
      </root>
    </mxGraphModel>
  </diagram>
</mxfile>
